<svg width="60" height="60" viewBox="0 0 60 60" fill="none" xmlns="http://www.w3.org/2000/svg">
<path d="M42.9458 3C42.5889 3 42.266 3.14881 42.0621 3.44218L28.8401 22.5238C28.7551 22.6471 28.6999 22.8172 28.6702 22.966C28.3897 24.4541 28.9251 26.0825 30.2337 27.6599C32.3708 30.2364 36.2031 32.2517 38.935 32.2517C39.2452 32.2517 39.5426 32.2007 39.8188 32.1497C40.1459 32.0901 40.4093 31.8988 40.5665 31.6054L54.8761 4.59864C55.0546 4.26275 55.0376 3.83758 54.8422 3.5102C54.6467 3.18282 54.2728 3 53.8904 3H42.9458ZM26.4608 24.3946C19.1531 26.0697 17.3771 31.9711 15.6521 37.6939C13.9484 43.3444 12.3382 48.6803 5.76118 50.8912C5.25558 51.0612 4.92843 51.5544 5.01341 52.0816C5.09838 52.6088 5.56999 53 6.10108 53C27.3658 53 38.149 50.1003 39.3769 34.3605C39.2197 34.369 39.0965 34.4286 38.935 34.4286C35.5743 34.4286 31.1089 32.1199 28.5682 29.0544C27.1321 27.324 26.5883 25.7126 26.4608 24.3946Z" fill="url(#paint0_linear_299_12)"/>
<defs>
<linearGradient id="paint0_linear_299_12" x1="55" y1="3" x2="4.97812" y2="52.9647" gradientUnits="userSpaceOnUse">
<stop stop-color="#F97316"/>
<stop offset="1" stop-color="#FBBF24"/>
</linearGradient>
</defs>
</svg>
